<svg xmlns="http://www.w3.org/2000/svg" viewBox="0 0 382.01 86.99"><defs><style>.cls-1{fill:#309245;}.cls-2{fill:#44a257;}.cls-3{fill:#f1f2f2;}.cls-4{fill:#595a5a;}</style></defs><title>p2p_1</title><g id="Слой_2" data-name="Слой 2"><g id="Слой_1-2" data-name="Слой 1"><path class="cls-1" d="M158.1,0h30.45a44.62,44.62,0,0,1,44.62,44.62V75.07A11.92,11.92,0,0,1,221.26,87H191A44.79,44.79,0,0,1,146.18,42.2V11.92A11.92,11.92,0,0,1,158.1,0Z"/><path class="cls-2" d="M229.56,83.59a146.15,146.15,0,0,0-83.38-64.06V42.2A44.92,44.92,0,0,0,191,87h30.29A11.85,11.85,0,0,0,229.56,83.59Z"/><path class="cls-3" d="M189.92,30.42a13.07,13.07,0,1,1-13.07,13.07,13.09,13.09,0,0,1,13.07-13.07m0-14A27.07,27.07,0,1,0,217,43.49a27.07,27.07,0,0,0-27.07-27.07Z"/><path class="cls-3" d="M176.87,16.42h-5a9.48,9.48,0,0,0-9.48,9.49V76.59a44.83,44.83,0,0,0,14.5,8.1V16.42Z"/><polygon class="cls-3" points="190.06 16.43 173.16 16.43 173.16 25.44 190.06 25.44 190.06 16.43 190.06 16.43"/><path class="cls-4" d="M18.48,18.3h1.4q7.43,0,13.6,6.13a18.32,18.32,0,0,1,5,12.38v.31q0,9.47-8.62,15.55a19.31,19.31,0,0,1-10.51,3.09H19a20.21,20.21,0,0,1-8.82-2.15V74.35a.14.14,0,0,1-.16.16H.16A.14.14,0,0,1,0,74.35v-38q0-7,6.17-13.16Q12.18,18.3,18.48,18.3Zm.6,10h-.36q-4.44,0-7.49,4.61a10,10,0,0,0-1.05,4.14q0,5.12,5.22,7.93a9.36,9.36,0,0,0,3.6.78h.4q5,0,7.82-4.77a8.08,8.08,0,0,0,1-3.79v-.39q0-4.77-4.89-7.65a9.05,9.05,0,0,0-3.57-.86h-.4a.07.07,0,0,1-.08-.08Z"/><path class="cls-4" d="M113.38,18.3h1.4q7.41,0,13.59,6.13a18.32,18.32,0,0,1,5,12.38v.31q0,9.47-8.62,15.55a19.3,19.3,0,0,1-10.5,3.09h-.32a20.15,20.15,0,0,1-8.82-2.15V74.35a.15.15,0,0,1-.16.16H95.05a.15.15,0,0,1-.16-.16v-38q0-7,6.18-13.16Q107.09,18.3,113.38,18.3Zm.6,10h-.36q-4.45,0-7.5,4.61a9.93,9.93,0,0,0-1,4.14q0,5.12,5.21,7.93a9.41,9.41,0,0,0,3.61.78h.4q5,0,7.82-4.77a8.08,8.08,0,0,0,1-3.79v-.39q0-4.77-4.89-7.65a9.13,9.13,0,0,0-3.57-.86h-.4c-.06,0-.08,0-.08-.08Z"/><path class="cls-4" d="M64.22,18.16h1.25q6.5,0,12.1,5.31,4.62,5.31,4.61,10.74v1.45q0,4-3.44,8.47L64.3,65.07h17c.11,0,.16.08.16.16V73.9c0,.1,0,.15-.16.15H47.06V73.9q17.09-24.81,18-26,7.23-9.11,7.22-9.61a7.35,7.35,0,0,0,.76-3.2c0-3-1.49-5.42-4.49-7.11a7.56,7.56,0,0,0-3.16-.82h-.41a0,0,0,0,1,0,0l-.16,0h-.36q-3.57,0-6.25,3.48a7.49,7.49,0,0,0-1.4,4.45,7.8,7.8,0,0,0,1,3.71l-.16.08H48c-.3-.08-.5-1.4-.6-3.95q0-7.31,6-12.69A17,17,0,0,1,64.22,18.16Z"/><path class="cls-4" d="M247.83,17.93h9.86c.11,0,.16.08.16.16v20.7h.08a19.74,19.74,0,0,1,9-2.15q9.58,0,16,8.36a18.78,18.78,0,0,1,3.2,10.31v.31q0,9.15-8.5,15.39a19.49,19.49,0,0,1-9.9,3.09h-1.64c-4.39,0-8.59-1.74-12.63-5.23q-5.77-6-5.77-12.78v-38C247.69,18,247.75,17.93,247.83,17.93Zm10.1,37v.43a.07.07,0,0,1-.08.08l.08.16v.23c0,3.13,1.71,5.66,5.13,7.62a11.43,11.43,0,0,0,3.81.78q5.56,0,8.42-5.55a9.72,9.72,0,0,0,.56-3v-.39q0-4.73-4.73-7.54a8.9,8.9,0,0,0-4.17-1q-6.18,0-8.7,6.21A8,8,0,0,0,257.93,54.88Z"/><path class="cls-4" d="M343.72,17.93h9.86c.11,0,.16.08.16.16v20.7h.08a19.77,19.77,0,0,1,9-2.15q9.59,0,16,8.36A18.71,18.71,0,0,1,382,55.31v.31q0,9.15-8.5,15.39a19.54,19.54,0,0,1-9.9,3.09H362q-6.57,0-12.63-5.23-5.77-6-5.77-12.78v-38C343.59,18,343.64,17.93,343.72,17.93Zm10.1,37v.43s0,.08-.08.08l.08.16v.23c0,3.13,1.71,5.66,5.14,7.62a11.42,11.42,0,0,0,3.8.78q5.58,0,8.42-5.55a9.44,9.44,0,0,0,.56-3v-.39q0-4.73-4.73-7.54a8.84,8.84,0,0,0-4.17-1q-6.16,0-8.7,6.21A8,8,0,0,0,353.82,54.88Z"/><path class="cls-4" d="M311.89,18.16h1.24q6.5,0,12.11,5.31,4.61,5.31,4.61,10.74v1.45q0,4-3.45,8.47L312,65.07h17c.11,0,.16.08.16.16V73.9c0,.1-.05.15-.16.15H294.73V73.9q17.08-24.81,18-26,7.21-9.11,7.22-9.61a7.35,7.35,0,0,0,.76-3.2q0-4.57-4.49-7.11a7.6,7.6,0,0,0-3.17-.82h-.4s0,0,0,0l-.16,0h-.36q-3.57,0-6.25,3.48a7.5,7.5,0,0,0-1.41,4.45,7.7,7.7,0,0,0,1,3.71l-.16.08h-9.51c-.29-.08-.49-1.4-.6-3.95q0-7.31,6.06-12.69A17,17,0,0,1,311.89,18.16Z"/></g></g></svg>